<svg xmlns="http://www.w3.org/2000/svg" width="800" height="450" viewBox="0 0 800 450">
 <defs>
  <radialGradient id="bg"><stop stop-color="#244239"/><stop offset="1" stop-color="#0b171c"/></radialGradient>
  <linearGradient id="metal" x2="0.4" y2="1"><stop stop-color="#d7e3bd"/><stop offset="1" stop-color="#8aab94"/></linearGradient>
  <pattern id="grid" width="45" height="45" patternUnits="userSpaceOnUse"><path d="M45 0H0V45" fill="none" stroke="#718f77" stroke-opacity=".09"/></pattern>
  <g id="coin"><circle r="25" fill="#b8f579"/><circle r="19" fill="#86b950" stroke="#dcffaf" stroke-width="2"/><path d="M7-8C-8-19-18 12 7 9" fill="none" stroke="#253a21" stroke-width="5" stroke-linecap="round"/></g>
  <g id="server"><path d="M0 0 17-11H91L74 0" fill="#486154"/><path d="M74 0 91-11V155L74 167" fill="#172a2d"/><rect width="74" height="167" rx="7" fill="#263c3c" stroke="#4f685b" stroke-width="2"/><g fill="#13282d" stroke="#435e55"><rect x="9" y="12" width="56" height="25" rx="4"/><rect x="9" y="45" width="56" height="25" rx="4"/><rect x="9" y="78" width="56" height="25" rx="4"/><rect x="9" y="111" width="56" height="25" rx="4"/></g><g fill="#b8f579"><circle cx="55" cy="24" r="3"/><circle cx="55" cy="57" r="3"/><circle cx="55" cy="90" r="3"/><circle cx="55" cy="123" r="3"/></g><path d="M18 23h23m-23 33h23m-23 33h23m-23 33h23" stroke="#62847a" stroke-width="3" stroke-linecap="round"/></g>
 </defs>
 <rect width="800" height="450" fill="url(#bg)"/><rect width="800" height="450" fill="url(#grid)"/>
 <path d="M0 381 414 256 800 364M0 442 423 299 800 421M269 450 473 284M539 450 545 295M734 450 612 310" fill="none" stroke="#56795d" stroke-opacity=".17" stroke-width="2"/>
 <rect x="45" y="46" width="184" height="28" rx="14" fill="#213e32" stroke="#537946"/>
 <circle cx="60" cy="60" r="4" fill="#b8f579"/><text x="73" y="65" fill="#b8f579" font-family="Arial, sans-serif" font-size="12" font-weight="700" letter-spacing="1.5">ONE MORE GENERATION</text>
 <text x="41" y="169" font-family="Arial Black, Arial, sans-serif" font-weight="900" font-size="69" letter-spacing="-4" fill="#edf0dd">OUT OF</text>
 <text x="39" y="243" font-family="Arial Black, Arial, sans-serif" font-weight="900" font-size="76" letter-spacing="-4" fill="#b8f579">CREDITS</text>
 <text x="46" y="280" font-family="Arial, sans-serif" font-size="17" fill="#a6bba9">Tiny chatbot. Absurd AI empire.</text>
 <rect x="46" y="317" width="156" height="44" rx="12" fill="#b8f579"/><text x="66" y="345" font-family="Arial, sans-serif" font-size="15" font-weight="800" fill="#203225">CLICK. CREATE.</text><path d="m178 333 7 7-7 7" fill="none" stroke="#203225" stroke-width="3" stroke-linecap="round" stroke-linejoin="round"/>
 <use href="#server" x="432" y="189"/><use href="#server" transform="translate(695 197) scale(.83)"/>
 <ellipse cx="608" cy="373" rx="118" ry="25" fill="#071317" opacity=".7"/>
 <g transform="translate(610 320)">
  <rect x="-45" y="13" width="35" height="38" rx="11" fill="#607c65" stroke="#99b18d" stroke-width="3"/><rect x="12" y="13" width="35" height="38" rx="11" fill="#607c65" stroke="#99b18d" stroke-width="3"/>
  <rect x="-60" y="-94" width="120" height="125" rx="30" fill="url(#metal)" stroke="#d9e6c3" stroke-width="3"/>
  <rect x="-45" y="-72" width="90" height="68" rx="19" fill="#27473a" stroke="#71976c" stroke-width="3"/><circle cx="0" cy="-38" r="19" fill="#6c9954"/><circle cx="0" cy="-38" r="10" fill="#c5fa81"/>
  <path d="m-61-78-24 34 5 33m142-67 24 22 19-13" fill="none" stroke="#a5be9d" stroke-width="20" stroke-linecap="round"/><circle cx="-79" cy="-9" r="13" fill="#d2dfb7"/><circle cx="105" cy="-73" r="13" fill="#d2dfb7"/>
  <path d="M0-182v-31" stroke="#a6c493" stroke-width="5"/><circle cy="-216" r="9" fill="#ffa36b"/><circle cy="-216" r="16" fill="#ffa36b" opacity=".12"/>
  <rect x="-88" y="-155" width="14" height="47" rx="6" fill="#638b78"/><rect x="75" y="-155" width="14" height="47" rx="6" fill="#638b78"/>
  <rect x="-77" y="-184" width="154" height="114" rx="33" fill="url(#metal)" stroke="#e0eccd" stroke-width="3"/>
  <rect x="-62" y="-162" width="124" height="65" rx="22" fill="#112a2b" stroke="#79a18b" stroke-width="2"/>
  <rect x="-39" y="-141" width="20" height="22" rx="7" fill="#c0fa83"/><rect x="19" y="-141" width="20" height="22" rx="7" fill="#c0fa83"/>
  <path d="m-9-117 9 5 9-5" fill="none" stroke="#75d9a7" stroke-width="3" stroke-linecap="round" stroke-linejoin="round"/>
  <rect x="-24" y="-85" width="48" height="11" rx="5" fill="#6b926d"/>
 </g>
 <use href="#coin" transform="translate(737 121) rotate(14)"/><use href="#coin" transform="translate(453 98) scale(.74) rotate(-13)"/><use href="#coin" transform="translate(691 386) scale(.68)"/>
 <path d="M483 66v12m-6-6h12m261 98v10m-5-5h10M493 375v12m-6-6h12" stroke="#a9d88e" stroke-width="2" stroke-linecap="round"/>
 <text x="47" y="411" font-family="Arial, sans-serif" font-size="11" letter-spacing="3" fill="#718a7f">BUILD YOUR COMPUTE EMPIRE</text>
</svg>
